<?xml version="1.0" standalone="no"?>
<!DOCTYPE svg PUBLIC "-//W3C//DTD SVG 20010904//EN"
 "http://www.w3.org/TR/2001/REC-SVG-20010904/DTD/svg10.dtd">
<svg version="1.0" xmlns="http://www.w3.org/2000/svg"
 width="260.000000pt" height="260.000000pt" viewBox="0 0 260.000000 260.000000"
 preserveAspectRatio="xMidYMid meet">
<metadata>
Created by potrace 1.11, written by Peter Selinger 2001-2013
</metadata>
<g transform="translate(0.000000,260.000000) scale(0.100000,-0.100000)"
fill="#000000" stroke="none">
<path d="M596 2346 c-42 -19 -95 -74 -121 -126 -20 -39 -27 -61 -42 -130 -17
-75 17 -256 64 -342 28 -52 25 -68 -17 -68 -16 0 -30 -7 -34 -16 -8 -20 1 -34
22 -34 30 0 -23 -30 -101 -56 -109 -37 -132 -50 -191 -110 -90 -91 -130 -194
-129 -329 1 -209 95 -362 306 -500 158 -102 640 -328 793 -371 143 -40 296
-16 519 81 408 179 618 296 731 409 162 162 205 414 104 605 -58 108 -171 198
-284 227 -57 14 -91 38 -91 64 0 20 -6 26 -27 28 -16 2 -28 5 -28 8 0 3 11 26
24 52 52 105 71 181 71 287 -1 84 -5 110 -26 162 -45 106 -104 160 -188 170
-90 10 -136 -33 -217 -204 -29 -62 -55 -113 -58 -113 -3 0 -44 13 -93 29 -48
17 -115 34 -148 39 -64 11 -274 9 -340 -3 -44 -7 -146 -32 -170 -41 -11 -5
-26 18 -60 92 -52 112 -84 157 -129 185 -35 22 -97 24 -140 5z"/>
</g>
</svg>
